<?xml version="1.0" encoding="utf-8"?>
<!-- Generator: Adobe Illustrator 22.0.1, SVG Export Plug-In . SVG Version: 6.00 Build 0)  -->
<svg version="1.1" xmlns="http://www.w3.org/2000/svg" xmlns:xlink="http://www.w3.org/1999/xlink" x="0px" y="0px"
	 viewBox="0 0 146.9 148.1" style="enable-background:new 0 0 146.9 148.1;" xml:space="preserve">
<style type="text/css">
	.st0{fill:#BA1F2C;}
	.st1{fill:#FFFFFF;}
</style>
<g id="Ebene_1">
	<g>
		<path class="st0" d="M93.8,123.4L45.6,39.8c-0.3,0.2-0.5,0.3-0.8,0.5l48.2,83.6C93.2,123.7,93.5,123.6,93.8,123.4z"/>
		<g>
			<path class="st0" d="M98,24.2l-48.2,83.7c0.3,0.1,0.6,0.3,0.8,0.5l48.2-83.7C98.6,24.5,98.3,24.4,98,24.2z"/>
		</g>
		<path class="st0" d="M101.2,24.3c-2.5,0-4.6-2-4.6-4.6s2-4.6,4.6-4.6s4.6,2,4.6,4.6S103.8,24.3,101.2,24.3z"/>
		<path class="st0" d="M47.4,108.2c-2.5,0-4.6,2-4.6,4.6s2,4.6,4.6,4.6c2.5,0,4.6-2,4.6-4.6S49.9,108.2,47.4,108.2z"/>
		<path class="st0" d="M96.1,123.8c-2.5,0-4.6,2-4.6,4.6c0,2.5,2,4.6,4.6,4.6s4.6-2,4.6-4.6C100.7,125.9,98.7,123.8,96.1,123.8z"/>
		<g>
			<path class="st0" d="M121.8,79.1c0-0.2,0-0.4,0-0.6c0-0.1,0-0.2,0-0.3H25.2c0,0.1,0,0.2,0,0.3c0,0.2,0,0.4,0,0.6H121.8z"/>
		</g>
		<polygon class="st0" points="55.4,99 43.5,78.4 55.4,57.8 79.2,57.8 91.1,78.4 79.2,99 		"/>
		<path class="st0" d="M42.4,30.7c-2.5,0-4.6,2-4.6,4.6c0,2.5,2,4.6,4.6,4.6c2.5,0,4.6-2,4.6-4.6C46.9,32.8,44.9,30.7,42.4,30.7z"/>
		<path class="st0" d="M19.7,73.9c-2.5,0-4.6,2-4.6,4.6s2,4.6,4.6,4.6c2.5,0,4.6-2,4.6-4.6S22.2,73.9,19.7,73.9z"/>
		<path class="st0" d="M127.2,73.9c-2.5,0-4.6,2-4.6,4.6s2,4.6,4.6,4.6s4.6-2,4.6-4.6S129.7,73.9,127.2,73.9z"/>
		<g>
			<g>
				<path class="st1" d="M54.4,83.3c-1.1,0-2-0.1-2.5-0.4l-0.1,0v-1.3l0.2,0.1c0.4,0.2,0.8,0.3,1.2,0.4c0.4,0.1,0.9,0.1,1.3,0.1
					c0.7,0,1.2-0.1,1.5-0.4c0.3-0.2,0.5-0.6,0.5-1c0-0.3-0.1-0.5-0.2-0.7c-0.1-0.2-0.3-0.4-0.6-0.5c-0.3-0.2-0.7-0.4-1.3-0.6
					c-0.9-0.3-1.5-0.7-1.9-1.1c-0.4-0.4-0.6-1-0.6-1.7c0-0.7,0.3-1.3,0.8-1.8c0.5-0.4,1.3-0.7,2.2-0.7c0.9,0,1.8,0.2,2.6,0.5l0.1,0
					l-0.4,1.2L57,75.4c-0.7-0.3-1.5-0.5-2.1-0.5c-0.5,0-0.9,0.1-1.2,0.3c-0.3,0.2-0.4,0.5-0.4,0.9c0,0.3,0.1,0.5,0.2,0.7
					c0.1,0.2,0.3,0.4,0.5,0.5c0.3,0.2,0.7,0.3,1.2,0.5c1,0.4,1.6,0.7,2,1.1c0.4,0.4,0.6,1,0.6,1.6c0,0.8-0.3,1.5-0.9,2
					C56.2,83.1,55.4,83.3,54.4,83.3z"/>
			</g>
			<g>
				<path class="st1" d="M63.3,83.3c-1.4,0-2.5-0.4-3.2-1.3c-0.7-0.8-1.1-2-1.1-3.6c0-1,0.2-1.8,0.5-2.5c0.4-0.7,0.9-1.3,1.6-1.7
					c0.7-0.4,1.5-0.6,2.4-0.6c1,0,1.8,0.2,2.6,0.5l0.1,0.1l-0.6,1.1l-0.1-0.1c-0.7-0.3-1.3-0.5-2-0.5c-1,0-1.7,0.3-2.3,1
					c-0.6,0.6-0.8,1.5-0.8,2.7c0,1.2,0.3,2.1,0.8,2.7c0.9,1,2.4,1.2,4.4,0.6l0.2,0V83l-0.1,0C65,83.2,64.2,83.3,63.3,83.3z"/>
			</g>
			<g>
				<path class="st1" d="M71.4,83.2h-1.3V75h-2.9v-1.2h7.1V75h-2.9V83.2z"/>
			</g>
			<g>
				<path class="st1" d="M79,83.2c-1.4,0-2.5-0.4-3.2-1.3c-0.7-0.8-1.1-2-1.1-3.6c0-1.5,0.4-2.7,1.1-3.5c0.8-0.8,1.8-1.3,3.2-1.3
					c1.3,0,2.4,0.4,3.2,1.3c0.8,0.9,1.1,2,1.1,3.5c0,1.5-0.4,2.7-1.1,3.5C81.4,82.8,80.4,83.2,79,83.2z M79,74.8
					c-1,0-1.7,0.3-2.2,0.9c-0.5,0.6-0.8,1.5-0.8,2.7c0,1.2,0.3,2.1,0.8,2.7c0.5,0.6,1.2,0.9,2.2,0.9c1,0,1.7-0.3,2.2-0.9
					c0.5-0.6,0.7-1.5,0.7-2.7c0-1.2-0.2-2.1-0.7-2.7C80.7,75.1,80,74.8,79,74.8z"/>
			</g>
		</g>
	</g>
</g>
<g id="Ebene_2">
	<g>
	</g>
	<g>
	</g>
	<g>
	</g>
	<g>
	</g>
	<g>
	</g>
	<g>
	</g>
</g>
</svg>
